<svg xmlns="http://www.w3.org/2000/svg" viewBox="0 0 256 256" role="img" aria-label="2500 peso casino chip">
  <defs>
    <radialGradient id="face" cx="50%" cy="38%" r="66%"><stop offset="0" stop-color="#41d4c0"/><stop offset=".62" stop-color="#137c72"/><stop offset="1" stop-color="#073d3a"/></radialGradient>
    <linearGradient id="rim" x1="0" y1="0" x2="1" y2="1"><stop stop-color="#8be8d9"/><stop offset=".46" stop-color="#1b9d8e"/><stop offset="1" stop-color="#07534d"/></linearGradient>
    <radialGradient id="core"><stop stop-color="#126d67"/><stop offset="1" stop-color="#072f30"/></radialGradient>
    <filter id="shadow" x="-25%" y="-25%" width="150%" height="150%"><feDropShadow dx="0" dy="7" stdDeviation="6" flood-opacity=".45"/></filter>
  </defs>
  <g filter="url(#shadow)">
    <circle cx="128" cy="128" r="118" fill="url(#rim)" stroke="#042321" stroke-width="4"/>
    <circle cx="128" cy="128" r="107" fill="url(#face)" stroke="#d7fff8" stroke-opacity=".72" stroke-width="2"/>
    <g fill="#f0d282" stroke="#6a4b13" stroke-width="1.5">
      <rect x="116" y="10" width="24" height="43" rx="4"/><rect x="116" y="203" width="24" height="43" rx="4"/>
      <rect x="116" y="10" width="24" height="43" rx="4" transform="rotate(60 128 128)"/><rect x="116" y="203" width="24" height="43" rx="4" transform="rotate(60 128 128)"/>
      <rect x="116" y="10" width="24" height="43" rx="4" transform="rotate(120 128 128)"/><rect x="116" y="203" width="24" height="43" rx="4" transform="rotate(120 128 128)"/>
    </g>
    <circle cx="128" cy="128" r="79" fill="#063f3d" stroke="#f0d282" stroke-width="4"/>
    <circle cx="128" cy="128" r="70" fill="url(#core)" stroke="#5ad7c6" stroke-width="2"/>
    <g fill="none" stroke="#85e0d3" stroke-opacity=".24" stroke-width="1.5">
      <circle cx="128" cy="128" r="62"/><circle cx="128" cy="128" r="57"/>
      <path d="M128 66v124M66 128h124M84 84l88 88M172 84l-88 88"/>
    </g>
    <text x="128" y="141" text-anchor="middle" fill="#fff9e6" stroke="#052c2b" stroke-width="3" paint-order="stroke" font-family="Georgia,serif" font-size="45" font-weight="700">2500</text>
    <text x="128" y="168" text-anchor="middle" fill="#f0d282" font-family="Arial,sans-serif" font-size="10" font-weight="700" letter-spacing="3">CLEON</text>
  </g>
</svg>
