<svg xmlns="http://www.w3.org/2000/svg" viewBox="0 0 256 256" role="img" aria-label="5000 peso casino chip">
  <defs>
    <radialGradient id="face" cx="50%" cy="38%" r="66%"><stop offset="0" stop-color="#515a69"/><stop offset=".6" stop-color="#202630"/><stop offset="1" stop-color="#090c11"/></radialGradient>
    <linearGradient id="rim" x1="0" y1="0" x2="1" y2="1"><stop stop-color="#9ca7b7"/><stop offset=".44" stop-color="#333b47"/><stop offset="1" stop-color="#0b0f15"/></linearGradient>
    <radialGradient id="core"><stop stop-color="#303947"/><stop offset="1" stop-color="#0b1017"/></radialGradient>
    <filter id="shadow" x="-25%" y="-25%" width="150%" height="150%"><feDropShadow dx="0" dy="7" stdDeviation="6" flood-opacity=".5"/></filter>
  </defs>
  <g filter="url(#shadow)">
    <circle cx="128" cy="128" r="118" fill="url(#rim)" stroke="#020305" stroke-width="4"/>
    <circle cx="128" cy="128" r="107" fill="url(#face)" stroke="#e4e8ee" stroke-opacity=".66" stroke-width="2"/>
    <g fill="#efc96d" stroke="#5f4310" stroke-width="1.5">
      <rect x="116" y="10" width="24" height="43" rx="4"/><rect x="116" y="203" width="24" height="43" rx="4"/>
      <rect x="116" y="10" width="24" height="43" rx="4" transform="rotate(60 128 128)"/><rect x="116" y="203" width="24" height="43" rx="4" transform="rotate(60 128 128)"/>
      <rect x="116" y="10" width="24" height="43" rx="4" transform="rotate(120 128 128)"/><rect x="116" y="203" width="24" height="43" rx="4" transform="rotate(120 128 128)"/>
    </g>
    <circle cx="128" cy="128" r="79" fill="#0b1017" stroke="#efc96d" stroke-width="4"/>
    <circle cx="128" cy="128" r="70" fill="url(#core)" stroke="#818b98" stroke-width="2"/>
    <g fill="none" stroke="#c2cad5" stroke-opacity=".18" stroke-width="1.5">
      <circle cx="128" cy="128" r="62"/><circle cx="128" cy="128" r="57"/>
      <path d="M128 66v124M66 128h124M84 84l88 88M172 84l-88 88"/>
    </g>
    <text x="128" y="141" text-anchor="middle" fill="#fff" stroke="#05070a" stroke-width="3" paint-order="stroke" font-family="Georgia,serif" font-size="45" font-weight="700">5000</text>
    <text x="128" y="168" text-anchor="middle" fill="#efc96d" font-family="Arial,sans-serif" font-size="10" font-weight="700" letter-spacing="3">CLEON</text>
  </g>
</svg>
