<svg xmlns="http://www.w3.org/2000/svg" viewBox="0 0 256 256" role="img" aria-label="1000 peso casino chip">
  <defs>
    <radialGradient id="face" cx="50%" cy="40%" r="64%"><stop offset="0" stop-color="#536fe8"/><stop offset=".62" stop-color="#283d9d"/><stop offset="1" stop-color="#101946"/></radialGradient>
    <linearGradient id="rim" x1="0" y1="0" x2="1" y2="1"><stop stop-color="#9eb2ff"/><stop offset=".45" stop-color="#405bd0"/><stop offset="1" stop-color="#17266f"/></linearGradient>
    <radialGradient id="core"><stop stop-color="#263a92"/><stop offset="1" stop-color="#111a48"/></radialGradient>
    <filter id="shadow" x="-25%" y="-25%" width="150%" height="150%"><feDropShadow dx="0" dy="7" stdDeviation="6" flood-opacity=".45"/></filter>
  </defs>
  <g filter="url(#shadow)">
    <circle cx="128" cy="128" r="118" fill="url(#rim)" stroke="#080d24" stroke-width="4"/>
    <circle cx="128" cy="128" r="107" fill="url(#face)" stroke="#d8e0ff" stroke-opacity=".7" stroke-width="2"/>
    <g fill="#eef2ff" stroke="#17245f" stroke-width="1.5">
      <rect x="116" y="10" width="24" height="43" rx="4"/><rect x="116" y="203" width="24" height="43" rx="4"/>
      <rect x="116" y="10" width="24" height="43" rx="4" transform="rotate(60 128 128)"/><rect x="116" y="203" width="24" height="43" rx="4" transform="rotate(60 128 128)"/>
      <rect x="116" y="10" width="24" height="43" rx="4" transform="rotate(120 128 128)"/><rect x="116" y="203" width="24" height="43" rx="4" transform="rotate(120 128 128)"/>
    </g>
    <circle cx="128" cy="128" r="79" fill="#15225d" stroke="#d9e0ff" stroke-width="4"/>
    <circle cx="128" cy="128" r="70" fill="url(#core)" stroke="#7189ee" stroke-width="2"/>
    <g fill="none" stroke="#899cf1" stroke-opacity=".26" stroke-width="1.5">
      <circle cx="128" cy="128" r="62"/><circle cx="128" cy="128" r="57"/>
      <path d="M128 66v124M66 128h124M84 84l88 88M172 84l-88 88"/>
    </g>
    <text x="128" y="141" text-anchor="middle" fill="#fff" stroke="#0b1234" stroke-width="3" paint-order="stroke" font-family="Georgia,serif" font-size="46" font-weight="700">1000</text>
    <text x="128" y="168" text-anchor="middle" fill="#b9c7ff" font-family="Arial,sans-serif" font-size="10" font-weight="700" letter-spacing="3">CLEON</text>
  </g>
</svg>
